# xmcd
#
# Track frame offsets: 
#        150
#        18094
#        32983
#        46385
#        70994
#        86048
#        103970
#        125512
#        142550
#        158115
#        174331
#        192415
#
# Disc length: 2812 seconds
#
# Revision: 0
# Processed by: cddbd v1.5.2PL0 Copyright (c) Steve Scherf et al.
# Submitted via: ExactAudioCopy v1.0b3
#
DISCID=9d0afa0c
DTITLE=Wade Bowen - Then Sings My Soul
DYEAR=2014
DGENRE=Country
TTITLE0=Amazing Grace
TTITLE1=I'll Fly Away
TTITLE2=Softly and Tenderly
TTITLE3=Just Over in the Gloryland
TTITLE4=In the Garden
TTITLE5=How Great Thou Art
TTITLE6=Farther Along
TTITLE7=Peace in the Valley
TTITLE8=Precious Memories
TTITLE9=Old Rugged Cross
TTITLE10=Saved
TTITLE11=Take My Hand Precious Lord
EXTD=
EXTT0=
EXTT1=
EXTT2=
EXTT3=
EXTT4=
EXTT5=
EXTT6=
EXTT7=
EXTT8=
EXTT9=
EXTT10=
EXTT11=
PLAYORDER=
